<svg xmlns="http://www.w3.org/2000/svg" width="15" height="19" fill="none" viewBox="0 0 15 19"><path fill="#0f3c6c" fill-rule="evenodd" d="M0 5.833h15V4.167h-.835c-.01-1.813-.09-2.794-.73-3.435C12.701 0 11.523 0 9.166 0H5.833C3.476 0 2.298 0 1.566.732c-.64.64-.721 1.622-.731 3.435H0zm12.5-1.666h-10v-.834c0-.785 0-1.178.244-1.422s.637-.244 1.423-.244h6.666c.786 0 1.179 0 1.423.244s.244.637.244 1.422z" clip-rule="evenodd"/><path fill="#0f3c6c" d="M4.961 12.24v-1.388h.789c.493 0 .781.275.781.698 0 .408-.288.69-.781.69z"/><path fill="#0f3c6c" fill-rule="evenodd" d="M.833 6.667h13.334v6.666c0 2.357 0 3.536-.733 4.268-.732.732-1.91.732-4.267.732H5.833c-2.357 0-3.535 0-4.267-.732s-.733-1.91-.733-4.268zM7.531 15H6.447l-.979-1.922h-.507V15h-.979v-4.992h1.95c.973 0 1.592.668 1.592 1.535 0 .697-.408 1.225-1.063 1.415zm1.45 0H7.925l1.232-1.74-1.232-1.724h1.112c.06.095.203.304.346.514.142.209.285.418.345.514l.683-1.028h1.063l-1.211 1.697L11.516 15h-1.098l-.726-1.063-.187.277c-.187.278-.44.653-.524.786" clip-rule="evenodd"/></svg>